<svg width="100" height="18" viewBox="0 0 100 18" fill="none" xmlns="http://www.w3.org/2000/svg">
<path d="M42.767 0.51728H45.4446V2.98467C46.1181 2.02202 47.016 1.2392 48.06 0.704383C49.0021 0.249355 50.0347 0.0143448 51.0802 0.0169932C52.5884 -0.105932 54.0742 0.442531 55.1434 1.51685C56.1084 2.77222 56.5794 4.33995 56.4665 5.92129V16.667H53.7579V6.45217C53.8653 5.33286 53.5788 4.21115 52.9481 3.28162C52.2937 2.62126 51.3825 2.284 50.4574 2.35984C49.8473 2.36155 49.2419 2.4673 48.6671 2.67257C48.0672 2.88617 47.5203 3.22711 47.0637 3.67214C46.5849 4.08051 46.184 4.57268 45.8804 5.12471C45.5875 5.7432 45.4487 6.42384 45.4761 7.10807V16.667H42.767V0.51728ZM59.6418 0.51728H62.3504V10.7005C62.2515 11.8136 62.5078 12.9294 63.0821 13.8868C63.683 14.5604 64.5667 14.9081 65.4638 14.8239C66.6802 14.819 67.8491 14.3501 68.7334 13.5121C69.212 13.1037 69.6127 12.6116 69.9161 12.0596C70.2093 11.441 70.3483 10.7601 70.321 10.0757V0.51728H73.0296V16.6669H70.3525V14.168C69.6788 15.1072 68.8069 15.8858 67.7989 16.4483C66.8866 16.927 65.8711 17.1737 64.8416 17.1667C63.3622 17.3038 61.9011 16.7578 60.8717 15.6831C59.9591 14.3874 59.5243 12.8135 59.6418 11.2313L59.6418 0.51728ZM76.89 0.51728H79.5677V3.01617C80.1103 2.17829 80.834 1.47367 81.6849 0.954527C82.4652 0.4837 83.3588 0.235332 84.2693 0.236126C84.7497 0.228932 85.2295 0.270668 85.7014 0.360693L85.3589 2.89108C85.1511 2.84938 84.9435 2.81295 84.7361 2.78177C84.5093 2.74909 84.2805 2.73346 84.0515 2.735C83.5318 2.73864 83.0162 2.82831 82.5256 3.0004C81.9817 3.19245 81.4834 3.49558 81.0621 3.89065C80.6165 4.27241 80.2514 4.73965 79.9883 5.26492C79.7188 5.82998 79.5855 6.45069 79.5991 7.07695V16.6669H76.89V0.51728ZM97.377 14.4492C96.7579 15.1889 96.0086 15.8083 95.1665 16.2764C94.1415 16.8183 92.9931 17.082 91.8352 17.0416C91.0829 17.0493 90.3333 16.9495 89.609 16.7452C88.9717 16.5671 88.378 16.2586 87.8653 15.8392C87.3746 15.4294 86.9856 14.9107 86.7291 14.3241C86.4458 13.6528 86.3078 12.9287 86.3243 12.1999C86.2816 11.2539 86.5258 10.3172 87.0245 9.51337C87.4986 8.82048 88.1419 8.26118 88.8929 7.88895C89.7227 7.47723 90.6095 7.19289 91.5235 7.04546C92.5225 6.87691 93.5313 6.77264 94.5437 6.73329L97.3146 6.63974V6.01489C97.413 4.95023 97.1011 3.88822 96.443 3.04721C95.6601 2.37226 94.6376 2.04527 93.6098 2.1412C92.6229 2.06712 91.6364 2.29016 90.7765 2.78179C90.1782 3.20303 89.7567 3.83174 89.5933 4.54653L87.1335 4.26538C87.3275 2.93467 88.089 1.75452 89.2198 1.0323C90.5937 0.289349 92.1442 -0.0617924 93.703 0.0169932C94.7003 -0.00768962 95.6947 0.134937 96.6452 0.438987C97.3795 0.679827 98.0463 1.09191 98.5911 1.64141C99.1036 2.18791 99.4727 2.85353 99.6655 3.57851C99.893 4.42342 100.003 5.29583 99.9923 6.17097V16.6669H97.377V14.4492ZM97.3146 8.57634L94.7307 8.66988C93.8098 8.69053 92.8927 8.79519 91.9907 8.98256C91.3799 9.10308 90.795 9.33042 90.2627 9.6542C89.8638 9.9041 89.5491 10.2687 89.3597 10.7005C89.1759 11.1567 89.0859 11.6454 89.0951 12.1374C89.0613 12.8614 89.3259 13.5675 89.8269 14.0897C90.5038 14.6432 91.3708 14.907 92.2401 14.8239C93.5889 14.9065 94.9203 14.4834 95.9758 13.6367C96.8841 12.8095 97.3753 11.6176 97.3147 10.3883L97.3146 8.57634ZM17.0932 8.59184C17.0932 13.3276 20.9197 17.1667 25.6398 17.1667C30.36 17.1667 34.1864 13.3276 34.1864 8.59184C34.1864 8.54297 17.0932 8.59184 17.0932 8.59184ZM17.0932 8.59184C17.0932 3.85608 13.2668 0.0169932 8.5466 0.0169932C3.82644 0.0169932 0 3.85608 0 8.59184H17.0932Z" fill="white"/>
</svg>
